<svg width="109.000000" height="28.000000" viewBox="0 0 109 28" fill="none" xmlns="http://www.w3.org/2000/svg" xmlns:xlink="http://www.w3.org/1999/xlink">
	<desc>
			Created with Pixso.
	</desc>
	<defs>
		<clipPath id="clip2_16">
			<rect id="Frame" rx="-0.500000" width="108.000000" height="27.000000" transform="translate(0.500000 0.500000)" fill="white" fill-opacity="0"/>
		</clipPath>
	</defs>
	<rect id="Frame" rx="-0.500000" width="108.000000" height="27.000000" transform="translate(0.500000 0.500000)" fill="#FFFFFF" fill-opacity="0"/>
	<g clip-path="url(#clip2_16)">
		<path id="Vector" d="M3.17 5.56L3.17 27.54L0 27.54L0 0.22L3.17 0.22L18.98 22.02L18.98 0.22L22.16 0.22L22.16 27.54L18.98 27.54L3.17 5.56Z" fill="#000000" fill-opacity="1.000000" fill-rule="nonzero"/>
		<path id="Vector" d="M46.59 18.5L28.52 18.5C28.97 22.57 31.97 25.28 36.06 25.28C38.37 25.28 40.42 24.51 41.78 22.79L45.28 22.79C43.78 26 40.19 27.95 36.06 27.95C29.83 27.95 25.43 23.61 25.43 17.37C25.43 11.12 29.83 6.78 36.06 6.78C42.28 6.78 46.68 11.17 46.68 17.37C46.68 17.73 46.64 18.09 46.59 18.5ZM28.56 15.87L43.46 15.87C42.87 11.98 40.01 9.45 36.06 9.45C32.1 9.45 29.15 11.98 28.56 15.87Z" fill="#000000" fill-opacity="1.000000" fill-rule="nonzero"/>
		<path id="Vector" d="M49.82 7.14L52.91 7.14L52.91 19.36C52.91 22.79 54.95 25.15 58.4 25.15C61.85 25.15 63.9 22.79 63.9 19.36L63.9 7.14L66.94 7.14L66.94 27.54L63.9 27.54L63.9 25.1C62.53 26.95 60.35 28.04 58.04 27.95C53.04 27.95 49.86 24.42 49.86 19.36L49.82 7.14Z" fill="#000000" fill-opacity="1.000000" fill-rule="nonzero"/>
		<path id="Vector" d="M71.39 7.14L74.48 7.14L74.48 9.99L81.61 6.92L81.61 10.08L74.48 13.02L74.48 27.54L71.39 27.54L71.39 7.14Z" fill="#000000" fill-opacity="1.000000" fill-rule="nonzero"/>
		<path id="Vector" d="M83.61 17.41C83.61 11.21 88.01 6.83 94.23 6.83C100.46 6.83 104.86 11.26 104.86 17.41C104.86 23.56 100.46 28 94.23 28C88.01 28 83.61 23.65 83.61 17.41ZM101.77 17.41C101.77 12.75 98.69 9.54 94.23 9.54C89.78 9.54 86.6 12.75 86.6 17.41C86.6 22.07 89.78 25.24 94.23 25.24C98.69 25.24 101.77 22.07 101.77 17.41Z" fill="#000000" fill-opacity="1.000000" fill-rule="nonzero"/>
		<path id="Vector" d="M106.09 5.78C104.5 5.78 103.18 4.47 103.18 2.89C103.18 1.31 104.5 0 106.09 0C107.68 0 109 1.31 109 2.89C109 4.47 107.68 5.78 106.09 5.78ZM106.09 0.58C104.82 0.58 103.77 1.62 103.77 2.89C103.77 4.16 104.82 5.2 106.09 5.2C107.36 5.2 108.41 4.16 108.41 2.89C108.41 1.62 107.36 0.58 106.09 0.58Z" fill="#000000" fill-opacity="1.000000" fill-rule="nonzero"/>
		<path id="Vector" d="M106 3.21L105.73 3.21L105.73 4.29L105.14 4.29L105.14 1.4L106.27 1.4C106.77 1.35 107.18 1.71 107.22 2.21C107.22 2.26 107.22 2.26 107.22 2.3C107.22 2.71 107 3.03 106.59 3.12L107.22 4.29L106.59 4.29L106 3.21ZM106.18 2.71C106.45 2.71 106.63 2.53 106.63 2.3C106.63 2.08 106.45 1.89 106.18 1.89L105.73 1.89L105.73 2.71L106.18 2.71Z" fill="#000000" fill-opacity="1.000000" fill-rule="nonzero"/>
	</g>
</svg>
